<?xml version="1.0" standalone="no"?>
<!DOCTYPE svg PUBLIC "-//W3C//DTD SVG 20010904//EN"
 "http://www.w3.org/TR/2001/REC-SVG-20010904/DTD/svg10.dtd">
<svg version="1.0" xmlns="http://www.w3.org/2000/svg"
 width="1800.000000pt" height="1800.000000pt" viewBox="0 0 1800.000000 1800.000000"
 preserveAspectRatio="xMidYMid meet">
<metadata>
Created by potrace 1.11, written by Peter Selinger 2001-2013
</metadata>
<g transform="translate(0.000000,1800.000000) scale(0.100000,-0.100000)"
fill="#000000" stroke="none">
<path d="M8708 14805 c-2 -2 -45 -6 -96 -9 -51 -4 -110 -8 -130 -10 -20 -3
-66 -7 -102 -11 -36 -4 -76 -8 -90 -10 -14 -2 -45 -7 -70 -10 -111 -15 -243
-37 -335 -56 -55 -12 -109 -23 -120 -25 -112 -20 -409 -102 -594 -164 -545
-181 -1108 -470 -1556 -798 -124 -91 -112 -82 -215 -163 -182 -144 -316 -265
-510 -460 -321 -323 -538 -597 -825 -1044 -157 -243 -403 -747 -499 -1020 -10
-27 -22 -59 -26 -70 -15 -36 -99 -298 -120 -375 -11 -41 -31 -115 -44 -165
-40 -147 -101 -463 -121 -628 -3 -23 -7 -58 -10 -77 -30 -214 -40 -399 -40
-720 0 -293 9 -470 30 -635 2 -22 7 -62 10 -90 6 -53 23 -178 31 -223 4 -24
11 -61 30 -162 3 -14 13 -65 24 -115 10 -49 21 -101 24 -115 8 -39 65 -250 80
-300 56 -176 98 -308 106 -325 4 -11 21 -54 36 -95 71 -195 262 -608 352 -762
15 -26 51 -88 79 -137 91 -158 352 -543 393 -581 3 -3 18 -23 35 -45 210 -286
650 -728 980 -985 39 -30 72 -57 75 -60 10 -11 216 -157 305 -217 171 -114
401 -247 600 -348 224 -112 270 -133 470 -212 77 -30 149 -59 160 -64 39 -17
305 -103 420 -135 53 -16 363 -90 410 -98 17 -3 57 -11 90 -17 63 -12 82 -15
130 -23 17 -3 44 -7 60 -10 42 -7 179 -24 248 -31 32 -4 66 -8 77 -10 135 -26
979 -25 1115 1 11 2 47 6 80 9 33 3 71 8 85 10 14 2 45 6 70 10 125 16 321 51
460 82 85 19 163 36 173 38 9 2 21 6 25 9 5 3 22 8 38 10 16 3 61 15 99 27 39
11 99 29 135 39 301 88 782 294 1087 466 62 35 117 64 123 64 5 0 10 4 10 9 0
5 8 11 18 15 9 3 26 11 37 18 214 139 320 209 365 242 90 65 245 181 250 186
3 3 30 25 60 50 30 25 57 47 60 50 3 3 23 20 45 39 251 212 493 461 754 776
95 115 300 403 398 560 50 81 65 105 160 275 81 143 213 417 277 575 32 77 61
149 66 160 73 167 236 740 276 969 33 194 43 259 49 306 4 30 8 66 10 80 56
408 55 1045 -1 1450 -25 179 -35 249 -39 270 -3 14 -8 39 -10 55 -3 17 -13 64
-21 105 -9 41 -18 86 -20 100 -3 14 -19 79 -35 145 -101 404 -233 766 -414
1140 -65 133 -96 191 -185 350 -93 165 -298 476 -402 610 -308 396 -567 667
-910 956 -483 405 -1015 722 -1608 957 -115 46 -380 139 -419 147 -9 2 -45 13
-81 24 -121 37 -457 117 -570 135 -19 3 -44 7 -55 10 -17 3 -86 14 -193 31
-13 2 -53 7 -90 10 -37 4 -74 8 -82 10 -8 3 -53 7 -100 11 -47 3 -103 8 -125
11 -45 5 -712 13 -717 8z"/>
</g>
</svg>
